<svg xmlns="http://www.w3.org/2000/svg" xmlns:xlink="http://www.w3.org/1999/xlink" width="500" zoomAndPan="magnify" viewBox="0 0 375 374.999991" height="500" preserveAspectRatio="xMidYMid meet" version="1.0"><defs><g/></defs><g fill="#231f20" fill-opacity="1"><g transform="translate(31.292459, 254.654763)"><g><path d="M 166.277344 -3.175781 L 85.789062 -210.230469 C 84.992188 -212.351562 81.285156 -212.351562 80.492188 -210.230469 L 0.265625 -3.175781 C -0.53125 -1.589844 0.53125 0 2.914062 0 L 39.1875 0 C 40.246094 0 41.570312 -0.53125 41.835938 -1.589844 L 83.140625 -119.679688 L 124.972656 -1.589844 C 125.238281 -0.53125 126.5625 0 127.355469 0 L 163.894531 0 C 165.75 0 167.074219 -1.589844 166.277344 -3.175781 Z M 166.277344 -3.175781 "/></g></g></g><g fill="#231f20" fill-opacity="1"><g transform="translate(189.293252, 348.260923)"><g><path d="M 110.410156 -172.367188 L 82.609375 -94.789062 L 41.304688 -210.230469 C 41.039062 -211.289062 39.980469 -211.820312 38.65625 -211.820312 L 2.648438 -211.820312 C 0.53125 -211.820312 -0.53125 -210.230469 0.265625 -208.644531 L 79.960938 -1.324219 C 81.019531 0.53125 84.199219 0.53125 84.992188 -1.324219 L 151.1875 -172.367188 Z M 110.410156 -172.367188 "/></g></g></g></svg>